<?xml version="1.0" encoding="UTF-8"?>
<svg xmlns="http://www.w3.org/2000/svg" xmlns:xlink="http://www.w3.org/1999/xlink" version="1.1" viewBox="0 0 700 700">
  <defs>
    <style>
      .cls-1 {
        fill: #505049;
      }

      .cls-1, .cls-2, .cls-3, .cls-4 {
        opacity: .54;
      }

      .cls-5 {
        fill: url(#_Безымянный_градиент_3);
      }

      .cls-6 {
        fill: #323330;
      }

      .cls-7, .cls-8 {
        fill: #f5f5f1;
      }

      .cls-9 {
        fill: #e6e5dd;
      }

      .cls-10 {
        fill: #c5b4b3;
      }

      .cls-11 {
        opacity: .15;
      }

      .cls-11, .cls-12, .cls-13, .cls-14 {
        fill: #fff;
      }

      .cls-12, .cls-8 {
        opacity: .64;
      }

      .cls-13 {
        opacity: .85;
      }

      .cls-15 {
        fill: #bbbbae;
      }

      .cls-16 {
        fill: #fefcf4;
      }

      .cls-17 {
        fill: url(#_Безымянный_градиент_3-2);
      }

      .cls-18 {
        fill: #695e5f;
      }

      .cls-19 {
        fill: #bcbcb1;
      }

      .cls-20 {
        fill: #212120;
      }

      .cls-21 {
        fill: #e7e6e0;
      }

      .cls-22, .cls-4 {
        fill: #4f4e47;
      }

      .cls-23 {
        fill: #c8c8c5;
      }

      .cls-24 {
        fill: #9e9463;
      }

      .cls-25 {
        fill: #c6c1c1;
      }

      .cls-2 {
        fill: #78746d;
      }

      .cls-26 {
        fill: #bbbcaf;
      }

      .cls-27 {
        fill: #121312;
      }

      .cls-28 {
        fill: #151515;
      }

      .cls-29 {
        fill: #695f5f;
      }

      .cls-30 {
        fill: #e6e5dc;
      }

      .cls-31 {
        opacity: .74;
      }

      .cls-32 {
        fill: #eaebcc;
      }

      .cls-33 {
        fill: #e6d993;
      }

      .cls-34 {
        fill: #c7b6a9;
      }

      .cls-35 {
        fill: #cedde1;
      }

      .cls-36 {
        fill: #222220;
      }

      .cls-37 {
        fill: #9ba9b6;
      }
    </style>
    <linearGradient id="_Безымянный_градиент_3" data-name="Безымянный градиент 3" x1="277.16" y1="239.47" x2="287.91" y2="157.84" gradientTransform="translate(43.01 -44.85) rotate(8.9)" gradientUnits="userSpaceOnUse">
      <stop offset="0" stop-color="#c0c3aa"/>
      <stop offset=".5" stop-color="#c1c4ab"/>
      <stop offset=".68" stop-color="#c8cab1"/>
      <stop offset=".79" stop-color="#d3d3ba"/>
    </linearGradient>
    <linearGradient id="_Безымянный_градиент_3-2" data-name="Безымянный градиент 3" x1="279.49" y1="229.98" x2="243.11" y2="188.88" xlink:href="#_Безымянный_градиент_3"/>
  </defs>
  <!-- Generator: Adobe Illustrator 28.6.0, SVG Export Plug-In . SVG Version: 1.2.0 Build 709)  -->
  <g>
    <g id="sprout">
      <g>
        <g>
          <path class="cls-5" d="M295.13,169.09c-.46,1.59-1.8,2.79-3.15,3.8-1.32.99-3.17,1.85-3.83,1.17-2.48-1.26-5.12-4.38-5.93-6.79-.7-1.26,1.51-3.81,3.96-5.73,2.46-1.94,5.38-3.75,8.29-4.77,1.39-.53,2.96-.78,3.44-.64-.13,0,.83.36,1.7,1.18,1.87,1.63,3.68,4.33,4.98,7.07,1.32,2.77,2.47,5.69,3.1,8.57.3,1.42.56,2.87.57,4.15.08,1.34-.12,2.43-.43,2.94-.35.96-2.83,2.75-5.82,4.04-2.96,1.41-6.51,2.57-10.04,3.83-3.54,1.26-7.23,2.5-10.94,3.94-3.71,1.45-7.49,3.02-11,5.74-.87.68-1.69,1.56-2.49,2.35-.69.98-1.41,2.03-1.82,3.14-.34,1.18-.57,2.38-.48,3.35-.05,1.06.14,2,.33,2.93.78,3.7,2.15,6.99,3.66,10.23,3.21,6.41,7,12.51,11.55,18.28-2.11-6.54-4.39-12.98-5.89-19.39-.78-3.17-1.45-6.39-1.46-9.28-.01-.72.02-1.43.14-2,.02-.69.28-1.07.41-1.46.24-.39.62-.7.9-1.09.56-.35.95-.74,1.55-1.09,2.42-1.44,5.85-2.6,9.29-3.72,3.48-1.11,7.17-2.1,10.95-3.17,3.77-1.1,7.57-2.27,11.48-3.92.96-.36,1.94-.9,2.92-1.39.97-.45,1.95-1.06,2.91-1.74.48-.34.96-.63,1.44-1.01l1.38-1.31c.94-.79,1.69-2.03,2.32-3.25,1.12-2.47,1.16-4.75,1.03-6.69-.1-2.01-.49-3.86-.93-5.71-.97-3.65-2.3-7.16-4.26-10.56-2.02-3.39-4.31-6.74-8.38-9.89-2.08-1.47-4.78-3.23-9.02-3.34-3.57.09-5.77,1.08-7.82,2.02-3.99,2-7.11,4.39-9.69,7.28-1.29,1.44-2.45,2.98-3.32,4.83-.43.92-.81,1.91-.91,3.15-.1.47,0,1.51.2,2.03.18.65.47,1.14.76,1.65,1.21,1.9,2.7,3.34,4.37,4.66,1.71,1.28,3.47,2.55,6.16,3.14.67.13,1.46.19,2.28.02.7-.19,1.27-.47,1.7-.77.9-.61,1.55-1.29,2.11-2.02,1.01-1.46,1.96-3.07,1.73-4.79Z"/>
          <polygon class="cls-16" points="313.19 190.27 308.41 183.65 310.73 180.4 318.01 181.53 316.93 185.64 313.19 190.27"/>
          <path class="cls-27" d="M284.78,245.42l-5.19-6.58c-4.49-5.69-8.33-11.76-11.72-18.54-1.49-3.21-2.97-6.68-3.79-10.6-.19-.97-.41-2.05-.36-3.31-.09-.83.08-2.07.54-3.69.5-1.39,1.31-2.55,2.02-3.58l.72-.76c.67-.68,1.36-1.37,2.09-1.94,3.63-2.82,7.46-4.43,11.38-5.96,2.72-1.06,5.43-2.01,8.08-2.94l4.8-1.69c2.9-1.02,5.64-1.98,8-3.1,2.89-1.24,4.8-2.74,5.08-3.24.22-.41.4-1.14.33-2.29-.01-1.29-.28-2.7-.54-3.93-.53-2.41-1.51-5.11-2.99-8.24-1.3-2.74-3.02-5.2-4.6-6.58-.48-.45-.96-.72-1.23-.86-.37.03-1.38.21-2.38.59-3.17,1.11-6.04,3.08-7.89,4.54-2.46,1.92-3.5,3.55-3.52,4,.77,2.18,3.19,4.96,5.24,5.99l.13.07c.36-.07,1.17-.4,2.11-1.1,1.09-.82,2.26-1.81,2.6-3.01l1.98-6.82.97,7.04c.3,2.21-.77,4.12-1.98,5.86-.8,1.04-1.58,1.78-2.5,2.41-.59.42-1.32.75-2.14.98-1,.21-1.96.21-2.98,0-3.1-.68-5.13-2.2-6.76-3.41-2.13-1.69-3.59-3.24-4.74-5.06-.36-.63-.71-1.23-.94-2.05-.27-.63-.39-1.97-.23-2.75.09-1.31.57-2.51,1.02-3.48.83-1.76,1.92-3.36,3.56-5.2,2.76-3.1,6.08-5.59,10.14-7.63,2.04-.94,4.52-2.08,8.46-2.18,4.61.11,7.55,1.93,9.93,3.62,4.51,3.48,6.91,7.16,8.8,10.35,1.9,3.3,3.34,6.87,4.42,10.95.52,2.16.88,3.99.98,6.02.13,2.07.1,4.59-1.16,7.38-.66,1.28-1.53,2.78-2.73,3.79l-1.31,1.25c-.46.37-.82.62-1.19.87l-.42.29c-1.15.81-2.18,1.42-3.14,1.86l-.54.28c-.83.43-1.66.85-2.48,1.16-4,1.69-7.92,2.88-11.58,3.95l-2.98.84c-2.72.76-5.38,1.51-7.93,2.32-3.44,1.12-6.73,2.24-8.98,3.58-.27.16-.49.33-.7.5-.19.14-.38.29-.59.43-.11.13-.22.25-.33.37-.09.1-.18.19-.26.29-.03.07-.05.13-.08.2-.11.25-.16.38-.17.61-.12.67-.15,1.23-.14,1.93,0,2.85.72,6.12,1.41,8.94,1.18,5.03,2.8,9.98,4.52,15.22l3.9,12.05ZM309.17,180.73c-.84,1.87-4.5,3.85-6.58,4.75-2.45,1.17-5.27,2.16-8.25,3.2l-4.8,1.69c-2.62.92-5.29,1.85-7.98,2.9-3.71,1.45-7.31,2.96-10.63,5.53-.63.49-1.22,1.09-1.8,1.68l-.55.55c-.47.72-1.13,1.66-1.46,2.59-.31,1.12-.46,2.06-.4,2.69-.04,1.09.13,1.91.3,2.77.75,3.61,2.15,6.89,3.55,9.9,1.77,3.53,3.66,6.87,5.71,10.06-1.08-3.39-2.09-6.81-2.88-10.19-.73-2.98-1.49-6.47-1.5-9.62-.02-.92.04-1.68.18-2.32,0-.53.22-1.07.38-1.43l.23-.51c.19-.3.42-.57.67-.84.1-.11.21-.22.3-.35l.41-.38c.22-.14.41-.28.59-.43.3-.23.61-.46.99-.69,2.52-1.5,5.98-2.68,9.6-3.86,2.59-.83,5.28-1.58,8.04-2.36l2.96-.83c3.57-1.05,7.4-2.21,11.3-3.86.77-.29,1.5-.67,2.22-1.04l.61-.31c.84-.39,1.72-.92,2.73-1.62l.47-.32c.3-.2.59-.39.88-.63l1.29-1.23c.86-.72,1.53-1.9,2.03-2.86.95-2.1.98-4.08.86-5.89-.09-1.82-.42-3.49-.89-5.45-1-3.78-2.35-7.12-4.1-10.16-1.75-2.93-3.96-6.33-8-9.45-2.07-1.46-4.43-2.93-8.14-3.03-3.24.09-5.23,1-7.15,1.88-3.67,1.84-6.69,4.11-9.19,6.92-1.43,1.61-2.38,2.99-3.08,4.47-.41.88-.7,1.66-.77,2.64-.06.41,0,1.1.1,1.34.18.62.39.98.65,1.43.95,1.49,2.2,2.82,4.02,4.26,1.28.95,2.62,1.95,4.47,2.56-2.48-1.6-4.91-4.56-5.78-7.14-1.38-2.42,2.66-5.99,4.47-7.4,2.02-1.6,5.19-3.77,8.72-5,1.13-.43,3.26-.99,4.35-.66l2.83,2,.67.69c1.48,1.64,2.95,3.88,4.13,6.36,1.58,3.33,2.63,6.24,3.21,8.9.29,1.38.59,2.98.6,4.46.09,1.46-.12,2.79-.59,3.63Z"/>
        </g>
        <g>
          <path class="cls-17" d="M240.42,174.94l12.76,11.03c4.01,3.58,7.79,7.17,10.95,11.05,3.18,3.87,5.77,7.95,7.45,12.6,1.76,4.64,2.39,9.87,2.65,15.86,3.64-4.7,5.52-11.02,4.92-17.42-.54-6.41-3.45-12.52-7.44-17.29-3.97-4.84-8.96-8.5-14.25-11.2-5.33-2.63-11.04-4.46-17.05-4.63Z"/>
          <path class="cls-27" d="M272.91,229.65l-.18-4.11c-.3-6.87-1.07-11.47-2.56-15.39-1.48-4.1-3.84-8.08-7.21-12.17-3.25-4-7.28-7.75-10.79-10.88l-15.94-13.79,4.23.12c5.69.16,11.48,1.73,17.67,4.79,6,3.07,10.96,6.97,14.75,11.6,4.48,5.35,7.24,11.79,7.78,18.12.63,6.64-1.28,13.37-5.23,18.47l-2.52,3.25ZM245.01,176.91l9.15,7.92c3.62,3.23,7.75,7.08,11.13,11.24,3.59,4.36,6.11,8.63,7.7,13.04,1.41,3.72,2.08,7.75,2.43,11.58,1.83-3.79,2.62-8.15,2.22-12.48-.49-5.73-3-11.57-7.09-16.46-3.54-4.32-8.17-7.96-13.78-10.83-4.09-2.02-7.98-3.35-11.77-4Z"/>
        </g>
      </g>
    </g>
    <g id="wing_x5F_R">
      <g>
        <g class="cls-31">
          <path class="cls-35" d="M324.12,119.4c.69-.19,2.22-1.81,2.22-1.81,0,0-5.52-3.01-7.09-4.38-3.12-2.7-6.9-10.79-10.57-12.68-2.29-1.18-8.5-2.63-10.26-.75-2.84,3.03-.68,13.52,2.26,16.45,4.19,4.18,17.75,4.78,23.44,3.17Z"/>
          <path class="cls-37" d="M316.54,121.7c-6.31,0-13.75-1.24-16.93-4.41-3.37-3.36-5.85-14.77-2.3-18.55,2.74-2.91,10.27-.47,12.05.45,2.46,1.27,4.71,4.56,6.88,7.74,1.39,2.03,2.82,4.13,3.99,5.14,1.19,1.03,5.33,3.38,6.83,4.19l1.72.94-1.34,1.42c-.83.87-2,1.97-2.9,2.23h0c-1.91.54-4.8.85-7.98.85ZM301.39,100.37c-.9,0-1.59.13-1.88.44-2.13,2.27-.28,11.85,2.23,14.35,3.54,3.54,16.39,4.34,21.91,2.8.03-.02.08-.05.12-.08-1.81-1.03-4.43-2.59-5.52-3.53-1.46-1.27-2.94-3.43-4.5-5.72-1.87-2.74-3.98-5.84-5.76-6.76-1.67-.86-4.62-1.5-6.59-1.5Z"/>
        </g>
        <path class="cls-14" d="M299.41,107.38s-.52-6.13.71-6.32,4.29-.28,5.51,1.46-1.37.8-2.26,1.65-3.58,4.15-3.58,4.15l-.38-.94Z"/>
      </g>
    </g>
    <g id="bee_x5F_p2">
      <g>
        <polygon class="cls-36" points="356.44 141.9 368.06 151.68 354.13 147.85 356.44 141.9"/>
        <polygon class="cls-8" points="363.1 147.87 367.85 151.58 361.52 148.53 363.1 147.87"/>
        <g>
          <circle class="cls-33" cx="343.39" cy="139.97" r="12.81"/>
          <path class="cls-24" d="M356.2,140.71c0,7.09-5.73,12.82-12.82,12.82s-12.79-5.73-12.79-12.82c0-.51.03-1.06.09-1.54,1.69,5.1,6.49,8.75,12.13,8.75,6.58,0,11.97-4.92,12.73-11.28.42,1.27.66,2.65.66,4.07Z"/>
          <path class="cls-36" d="M343.39,154.28c-7.89,0-14.31-6.42-14.31-14.32s6.42-14.31,14.31-14.31,14.31,6.42,14.31,14.31-6.42,14.32-14.31,14.32ZM343.39,128.67c-6.23,0-11.3,5.07-11.3,11.3s5.07,11.3,11.3,11.3,11.3-5.07,11.3-11.3-5.07-11.3-11.3-11.3Z"/>
        </g>
      </g>
    </g>
    <g id="bee_x5F_p1">
      <g>
        <g>
          <circle class="cls-6" cx="334.31" cy="135.38" r="16.83"/>
          <path class="cls-28" d="M350.77,135.16c0,9.29-7.54,16.83-16.83,16.83s-16.83-7.54-16.83-16.83v-.21c1.99,7.06,8.51,12.25,16.2,12.25,9.23,0,16.71-7.42,16.83-16.62.42,1.45.63,2.99.63,4.58Z"/>
          <path class="cls-36" d="M334.31,153.71c-10.11,0-18.33-8.22-18.33-18.33s8.22-18.33,18.33-18.33,18.33,8.22,18.33,18.33-8.22,18.33-18.33,18.33ZM334.31,120.06c-8.45,0-15.32,6.87-15.32,15.32s6.87,15.32,15.32,15.32,15.32-6.87,15.32-15.32-6.87-15.32-15.32-15.32Z"/>
        </g>
        <g>
          <circle class="cls-24" cx="323.43" cy="135.38" r="19.71"/>
          <path class="cls-36" d="M323.44,156.6c-11.7,0-21.22-9.52-21.22-21.22s9.52-21.22,21.22-21.22,21.22,9.52,21.22,21.22-9.52,21.22-21.22,21.22ZM323.44,117.18c-10.04,0-18.21,8.17-18.21,18.2s8.17,18.2,18.21,18.2,18.2-8.17,18.2-18.2-8.17-18.2-18.2-18.2Z"/>
        </g>
        <circle class="cls-33" cx="321.45" cy="132.63" r="15.04"/>
        <path class="cls-20" d="M321.67,130.86s3.69-4.15,5.96-4.81c2.26-.66,6.92.27,8.42,1.39s5.99,4.15,5.6,5.72-5.39,10.74-11.67,8.28c-6.28-2.45-9.77-4.59-9.79-6.47-.02-1.88,1.48-4.11,1.48-4.11Z"/>
        <path class="cls-20" d="M308.42,136.7c2.46.37,4.86-1.01,5.81-3.31.53-1.3.94-2.61.77-3.36-.6-2.79-5.24-7.47-8.02-8.13-2.17-.52-7.23,1-8.46,2.86-1.23,1.86-.76,7.18.66,8.9,1.32,1.59,5.86,2.54,9.24,3.05Z"/>
        <path class="cls-7" d="M306.78,125.82c0-1.55-1.26-2.8-2.8-2.8s-3.07,1.26-3.07,2.8,1.53,2.29,3.08,2.29,2.79-.74,2.79-2.29Z"/>
        <path class="cls-7" d="M328.49,130.4c-.2-1.23-1.36-2.06-2.59-1.86s-2.27,1.39-2.07,2.62,1.51,1.62,2.74,1.42,2.12-.95,1.92-2.18Z"/>
      </g>
    </g>
    <g id="wing_x5F_L">
      <g>
        <g class="cls-31">
          <path class="cls-35" d="M343.92,121.87c-.78-.22-2.52-2.06-2.52-2.06,0,0,6.26-3.42,8.05-4.97,3.54-3.07,7.82-12.25,11.99-14.39,2.6-1.33,9.65-2.98,11.65-.86,3.22,3.43.77,15.34-2.57,18.67-4.75,4.74-20.14,5.42-26.6,3.6Z"/>
          <path class="cls-37" d="M352.54,124.29c-3.6,0-6.87-.36-9.03-.97h0c-.98-.28-2.28-1.5-3.2-2.47l-1.34-1.42,1.72-.94c1.7-.93,6.42-3.6,7.78-4.78,1.35-1.17,2.91-3.45,4.56-5.87,2.45-3.59,4.98-7.3,7.73-8.71,2.59-1.33,10.65-3.52,13.43-.55,3.96,4.23,1.17,17.01-2.6,20.77-3.57,3.56-11.94,4.95-19.04,4.95ZM344.38,120.43c6.44,1.8,20.93.91,25.08-3.22,2.97-2.97,5.07-13.87,2.53-16.57-1.12-1.2-7.01-.3-9.86,1.16-2.07,1.06-4.48,4.6-6.62,7.73-1.77,2.59-3.43,5.03-5.07,6.45-1.28,1.11-4.45,2.98-6.5,4.14.18.15.34.26.43.3Z"/>
        </g>
        <path class="cls-14" d="M369.66,100.93s-3.62-.06-5.52,1.03-4.33,3.4-4.33,3.4c0,0,5.97-.81,6.51.34.53,1.15,5.15-.19,5.43-.51s.43-4.69-2.09-4.26Z"/>
        <path class="cls-14" d="M370.84,112.56s.16,2.83-1.66,4.05-3.33,1.73-3.33,1.73c0,0,4.31-2.53,4.99-5.78Z"/>
      </g>
    </g>
    <g id="arm_x5F_R">
      <g>
        <g>
          <path class="cls-15" d="M259.34,391.57l-15.49,50.57c-4.54,14.82-16.66,20.51-27.85,12.09-1.73-1.3-2.93-3.19-3.51-5.27l-.95-3.4c-3.92-13.97-13.42-25.72-26.25-32.5l-16.56-8.74c-11.05-5.83-19.33-16.23-21.43-28.55-1.79-10.52.43-21.09,6.82-28.17l35.31-39.1c6.72-7.44,19.33-3.69,28.29,7.4l33.28,41.16c7.64,9.45,11.4,24.54,8.35,34.52Z"/>
          <g class="cls-3">
            <path class="cls-22" d="M259.34,391.57l-15.5,50.58c-2.11,6.88-5.82,11.76-10.35,14.21-5.22,2.84-11.49,2.38-17.49-2.14-1.72-1.3-2.93-3.17-3.5-5.25l-.97-3.41c-.24-.84-.48-1.66-.78-2.47-.75-2.35-1.72-4.65-2.84-6.85,10.92-8.93,37.85-37.55,28.81-96.82l14.27,17.65c7.63,9.44,11.4,24.55,8.36,34.51Z"/>
          </g>
          <path class="cls-36" d="M226.64,461.15c-4.2,0-8.48-1.53-12.45-4.52-2.19-1.64-3.82-4.09-4.6-6.87l-.95-3.39c-3.68-13.12-12.71-24.29-24.76-30.65l-16.56-8.74c-12.22-6.45-20.82-17.93-23-30.71-2.03-11.93.72-23.12,7.56-30.7l35.31-39.1c2.98-3.3,7-5.01,11.64-4.85,7.19.19,15.12,4.82,21.23,12.37l33.28,41.16c8.4,10.39,12.22,26.42,8.89,37.3l-15.49,50.57c-2.7,8.8-8.09,15.11-14.81,17.29-1.73.56-3.5.84-5.29.84ZM198.35,307.65c-2.71,0-4.96.97-6.68,2.87l-35.31,39.1c-5.51,6.1-7.79,15.69-6.09,25.64,1.87,10.94,9.29,20.81,19.87,26.39l16.56,8.74c13.5,7.13,23.62,19.65,27.75,34.35l.95,3.4c.43,1.52,1.28,2.83,2.42,3.68,4.09,3.08,8.33,4.03,12.25,2.76,4.82-1.57,8.79-6.42,10.9-13.32l15.49-50.57c2.75-8.98-.68-22.92-7.81-31.74l-33.28-41.16c-4.94-6.11-11.34-9.99-16.7-10.14-.11,0-.21,0-.32,0Z"/>
        </g>
        <g>
          <path class="cls-30" d="M157.83,381.05l.19-.77c1.9-7.5-10.19-16.94-23.5-20.32l-28.52-7.23c-5.91-1.5-11.26.4-12.65,4.07l-.14.37c-1.42,3.72,1.41,8.77,7.04,11.54l27.49,13.51c13.03,6.4,28.13,6.55,30.08-1.18Z"/>
          <path class="cls-36" d="M146.28,389.96c-6.03,0-13.16-1.73-19.86-5.03l-27.49-13.51c-6.9-3.39-10.56-9.97-8.53-15.31l.14-.38c1.98-5.21,8.96-7.74,16.21-5.92l28.52,7.23c6.95,1.76,13.74,5.12,18.65,9.22,5.73,4.8,8.23,10.04,7.03,14.76l-.19.77c-.73,2.87-2.71,5.13-5.73,6.52-2.39,1.11-5.4,1.64-8.75,1.64ZM101.97,355.24c-3.02,0-5.23,1.16-5.79,2.65l-.14.38c-.78,2.04,1.27,5.65,5.55,7.75l27.49,13.51c8.59,4.22,18.44,5.62,23.41,3.32,2.01-.93,2.32-2.13,2.42-2.53h0l.19-.77c.58-2.29-1.31-5.52-5.06-8.65-4.23-3.54-10.16-6.45-16.26-8l-28.52-7.23c-1.17-.3-2.28-.43-3.3-.43Z"/>
          <path class="cls-14" d="M104.25,359.45s-1.37-.92.59-.95,19.99,3.42,20.89,7.37-7.43-.58-7.43-.58l-14.05-5.83Z"/>
        </g>
        <g>
          <path class="cls-30" d="M180.69,349.34l.49-.83c4.87-8.19-10.92-23.04-27.96-30.07l-30.54-12.6c-5.5-2.27-10.83-1.25-12.73,1.89l-.19.32c-1.9,3.15-.24,8.2,4.45,11.82l26.09,20.11c14.57,11.23,35.51,17.56,40.39,9.36Z"/>
          <path class="cls-2" d="M178.94,347.51l-.48.78c-3.67,6.2-15.91,1.69-27.95-4.82,9.99,3.44,18.13,5.71,20.89.58l.42-.77c3.89-7.19-8.59-18.49-23.03-24.44l4.42,1.69c15.69,6.02,30.26,19.36,25.73,26.98Z"/>
          <path class="cls-36" d="M172.03,356.08c-9.36,0-22.74-5.36-33.58-13.71l-26.09-20.11c-5.82-4.49-8-11.12-5.19-15.77l.19-.31c2.79-4.6,9.71-5.91,16.46-3.13l30.54,12.6c14.47,5.97,27.11,16.7,30.04,25.5,1.38,4.16.42,7.14-.63,8.91l-.49.83c-1.05,1.76-3.22,4.04-7.57,4.87-1.13.22-2.37.32-3.68.32ZM116.79,307.62c-2.08,0-3.65.67-4.26,1.67l-.19.31c-1,1.65.14,5.13,3.7,7.88l26.09,20.11c10.75,8.28,24.99,13.65,32.44,12.24,1.73-.33,2.91-1.01,3.52-2.03h0l.49-.83c.6-1.01.63-2.29.09-3.91-2.35-7.05-14.04-16.64-26.61-21.82l-30.54-12.6c-1.71-.71-3.34-1.01-4.74-1.01Z"/>
          <path class="cls-14" d="M120.15,311.99s-.42-2.43,1.11-1.95c1.54.48,32.36,15.87,31.72,17.8-.64,1.93-7.15.41-7.15.41l-25.68-16.26Z"/>
        </g>
        <g>
          <path class="cls-30" d="M193.12,318.71l.46-.51c4.52-4.96.73-14.17-7.48-19.94l-21.79-15.32c-5.44-3.82-12.4-4.04-15.91-.73l-.36.34c-3.57,3.36-2.78,9.55,2.18,14.06l20,18.21c7.58,6.9,18.29,8.95,22.9,3.89Z"/>
          <path class="cls-2" d="M193.15,317.42l-.44.5c-4.23,4.98-14.24,3.7-21.93-2.22,5.09,1.33,9.86.62,12.47-2.43l.44-.5c4.35-5.13.23-14.19-8.18-19.66l-18.97-12.37c2.07.38,4.18,1.21,6.12,2.47l22.3,14.55c8.4,5.47,12.52,14.53,8.18,19.66Z"/>
          <path class="cls-36" d="M185.72,324.51c-5.63,0-12.17-2.58-17.53-7.46l-20-18.21c-3.38-3.08-5.34-7.05-5.37-10.9-.03-2.95,1.09-5.65,3.15-7.59l.36-.34c4.65-4.37,13.12-4.17,19.71.47l21.79,15.32c5.93,4.17,10,10.19,10.61,15.71.37,3.4-.54,6.42-2.63,8.72l-.46.51c-2.32,2.55-5.76,3.77-9.63,3.77ZM155.12,282.9c-1.96,0-3.63.56-4.65,1.51l-.36.34c-1.05.98-1.26,2.25-1.25,3.14.02,2.18,1.26,4.54,3.4,6.5l20,18.21c6.28,5.72,15.35,7.7,18.64,4.09l.46-.51c.91-1,1.28-2.35,1.1-4.01-.42-3.79-3.59-8.28-8.08-11.43l-21.79-15.32c-2.51-1.76-5.18-2.52-7.47-2.52Z"/>
          <path class="cls-14" d="M159.03,284.38s-1.09.84-.91,1.59,9.68,10.75,12.83,11.94c3.15,1.18,3.55-2.81,3.55-2.81,0,0-13.67-10.42-15.47-10.72Z"/>
        </g>
        <g>
          <path class="cls-30" d="M226.4,440.49l.86.36c8.5,3.58,8.95,14.7,2.32,23.07l-15.28,19.3c-3.37,4.25-9.81,5.7-14.72,3.7l-.5-.2c-4.91-2.01-7.46-7.16-5.43-11.99l9.25-21.93c4.02-9.53,14.96-15.91,23.5-12.32Z"/>
          <path class="cls-2" d="M229.83,460.91l-13,17.8c-1.51,2.09-3.88,3.52-6.49,4.19l11.73-16.03c5.72-7.82,4.72-17.58-3.38-20.05l-.84-.24c-3.22-.99-6.71-.59-9.94.85,4.44-5.46,11.54-8.69,17.69-6.81l.81.25c8.11,2.5,9.1,12.23,3.41,20.04Z"/>
          <path class="cls-36" d="M204.26,490.84c-1.99,0-3.97-.36-5.82-1.12l-.5-.21c-3.3-1.35-5.83-3.81-7.12-6.94-1.19-2.89-1.17-6.09.06-9.01l9.25-21.93c2.22-5.26,6.37-9.83,11.4-12.56,5.44-2.95,11.14-3.43,16.05-1.36l.86.36c4.17,1.76,7.09,5.14,8.21,9.53,1.49,5.8-.27,12.6-4.7,18.2l-15.28,19.3c-2.9,3.67-7.66,5.74-12.41,5.74ZM221.23,442.48c-2.19,0-4.52.63-6.83,1.89-3.84,2.09-7.02,5.59-8.71,9.61l-9.25,21.93c-.61,1.44-.62,2.95-.04,4.37.66,1.6,2.06,2.93,3.84,3.66l.5.21c3.81,1.56,8.74.34,11.21-2.78l15.28-19.3c3.22-4.07,4.59-9.03,3.59-12.95-.46-1.78-1.65-4.18-4.71-5.47l-.86-.36c-1.25-.53-2.59-.79-4-.79Z"/>
          <path class="cls-14" d="M204.59,473.75s-8.67,1.7-7.6,4.27,6.16,7.1,7.98,5.15c1.82-1.95,6.41-5.84,4.96-7.29-1.45-1.45-5.34-2.14-5.34-2.14Z"/>
        </g>
      </g>
    </g>
    <g id="foot_x5F_R">
      <g>
        <g>
          <path class="cls-19" d="M269.38,515.87l37.63-11.63c23.22-7.17,45.93.71,45.93,19.74v14.29c0,20.73-25.07,38.5-50.24,38.5h-39.8c-14.35,0-23.15-10.6-21.44-23.2l1.2-8.84c1.62-11.97,12.87-24.58,26.72-28.86Z"/>
          <path class="cls-1" d="M352.95,524v14.27c0,20.75-25.1,38.52-50.25,38.52h-39.79c-11.16,0-18.97-6.42-21.05-15.23.66.06,1.36.09,2.08.09h39.79c25.19,0,50.25-17.77,50.25-38.49v-14.3c0-2.26-.33-4.34-.9-6.27,11.64,2.5,19.88,9.95,19.88,21.42Z"/>
          <path class="cls-36" d="M302.71,579.79h-39.8c-7.81,0-14.61-2.87-19.16-8.07-4.34-4.97-6.22-11.56-5.27-18.55l1.2-8.84c1.81-13.35,14.2-26.82,28.82-31.34l37.63-11.63c15.3-4.73,30.75-3.27,40.33,3.79,6.22,4.59,9.51,11.11,9.51,18.84v14.29c0,21.73-25.38,41.51-53.25,41.51ZM270.28,518.75c-12.32,3.81-23.14,15.4-24.63,26.38l-1.2,8.84c-.71,5.24.65,10.13,3.83,13.77,3.38,3.88,8.57,6.01,14.62,6.01h39.8c24.27,0,47.22-17.24,47.22-35.48v-14.29c0-5.82-2.38-10.53-7.06-13.98-8.06-5.94-21.46-7.05-34.96-2.88l-37.63,11.63Z"/>
        </g>
        <g>
          <ellipse class="cls-10" cx="318.33" cy="513.91" rx="32.24" ry="14.7"/>
          <path class="cls-18" d="M322.36,505.29s29.39,3.08,24.61,11.75-24.61,9.11-24.61,9.11c0,0,19.66-5.24,19.23-10.41s-19.23-10.46-19.23-10.46Z"/>
          <path class="cls-36" d="M318.33,531.63c-20.1,0-35.26-7.62-35.26-17.72s15.16-17.72,35.26-17.72,35.26,7.62,35.26,17.72-15.16,17.72-35.26,17.72ZM318.33,502.22c-16.73,0-29.23,6.17-29.23,11.69s12.5,11.69,29.23,11.69,29.23-6.17,29.23-11.69-12.5-11.69-29.23-11.69Z"/>
        </g>
        <g>
          <ellipse class="cls-21" cx="319.61" cy="513.23" rx="11.25" ry="6.43"/>
          <path class="cls-36" d="M319.61,521.16c-7.15,0-12.76-3.49-12.76-7.94s5.6-7.94,12.76-7.94,12.76,3.49,12.76,7.94-5.6,7.94-12.76,7.94ZM319.61,508.31c-5.74,0-9.74,2.59-9.74,4.92s4,4.92,9.74,4.92,9.74-2.59,9.74-4.92-4-4.92-9.74-4.92Z"/>
        </g>
        <path class="cls-12" d="M313.38,502.8s-27.74,3.76-22.97,12.43,24.61,9.11,24.61,9.11c0,0-20.67-5.27-20.24-10.43.43-5.16,18.6-11.11,18.6-11.11Z"/>
        <ellipse class="cls-13" cx="263.11" cy="532.51" rx="8.84" ry="4.2" transform="translate(-42.56 23.24) rotate(-4.68)"/>
      </g>
    </g>
    <g id="foot_x5F_L">
      <g>
        <g>
          <path class="cls-19" d="M414.59,516.41l37.63-11.63c23.22-7.17,45.93.71,45.93,19.74v14.29c0,20.73-25.07,38.5-50.24,38.5h-39.8c-14.35,0-23.15-10.6-21.44-23.2l1.2-8.84c1.62-11.97,12.87-24.58,26.72-28.86Z"/>
          <path class="cls-1" d="M497.85,524.05v14.27c0,20.75-25.1,38.52-50.25,38.52h-39.79c-11.16,0-18.97-6.42-21.05-15.23.66.06,1.36.09,2.08.09h39.79c25.19,0,50.25-17.77,50.25-38.49v-14.3c0-2.26-.33-4.34-.9-6.27,11.64,2.5,19.88,9.95,19.88,21.42Z"/>
          <path class="cls-36" d="M447.91,580.33h-39.8c-7.81,0-14.61-2.87-19.16-8.07-4.34-4.97-6.21-11.56-5.27-18.55l1.2-8.84c1.81-13.35,14.2-26.82,28.82-31.34l37.63-11.63c15.3-4.73,30.75-3.27,40.32,3.79,6.22,4.59,9.51,11.1,9.51,18.84v14.29c0,21.73-25.38,41.51-53.25,41.51ZM415.48,519.29c-12.32,3.81-23.13,15.4-24.62,26.38l-1.2,8.84c-.71,5.24.65,10.13,3.83,13.77,3.38,3.88,8.57,6.01,14.62,6.01h39.8c24.27,0,47.22-17.24,47.22-35.48v-14.29c0-5.82-2.37-10.53-7.06-13.98-8.06-5.95-21.47-7.05-34.96-2.88l-37.63,11.63Z"/>
        </g>
        <g>
          <ellipse class="cls-25" cx="461.34" cy="513.37" rx="32.24" ry="14.7"/>
          <path class="cls-29" d="M465.65,504.91s29.39,3.08,24.61,11.75c-4.77,8.67-24.61,9.11-24.61,9.11,0,0,19.66-5.24,19.23-10.41-.43-5.16-19.23-10.46-19.23-10.46Z"/>
          <path class="cls-36" d="M461.34,531.09c-20.1,0-35.26-7.62-35.26-17.72s15.16-17.72,35.26-17.72,35.26,7.62,35.26,17.72-15.16,17.72-35.26,17.72ZM461.34,501.68c-16.73,0-29.23,6.17-29.23,11.69s12.5,11.69,29.23,11.69,29.23-6.17,29.23-11.69-12.5-11.69-29.23-11.69Z"/>
        </g>
        <g>
          <ellipse class="cls-21" cx="463.21" cy="513.37" rx="11.25" ry="6.43"/>
          <path class="cls-36" d="M463.21,521.3c-7.15,0-12.75-3.49-12.75-7.94s5.6-7.94,12.75-7.94,12.76,3.49,12.76,7.94-5.6,7.94-12.76,7.94ZM463.21,508.45c-5.74,0-9.74,2.59-9.74,4.92s4,4.92,9.74,4.92,9.74-2.59,9.74-4.92-4-4.92-9.74-4.92Z"/>
        </g>
        <path class="cls-11" d="M456.42,502.49s-27.74,3.76-22.97,12.43c4.77,8.67,24.61,9.11,24.61,9.11,0,0-20.67-5.27-20.24-10.43.43-5.16,18.6-11.11,18.6-11.11Z"/>
      </g>
    </g>
    <g id="body">
      <g>
        <g>
          <g>
            <path class="cls-26" d="M306.1,204.35l128.11-16.01c34.56-4.32,61.03,24.8,57.9,62.78l-10.97,133.28c-2.39,28.99-27.8,51.72-55.86,51.79l-105.57.29c-24.54.07-46.16-20.29-48.72-46.28l-11.57-117.82c-3.25-33.08,17.32-64.37,46.68-68.03Z"/>
            <path class="cls-4" d="M492.11,251.13l-10.98,133.26c-2.38,28.99-27.78,51.73-55.86,51.79l-105.57.3c-21.57.06-40.9-15.68-46.99-37.13,7.12,4.25,15.26,6.67,23.74,6.64l105.57-.27c28.08-.09,53.48-22.8,55.86-51.79l10.98-133.29c.75-9.26-.24-18.01-2.71-25.85,17.34,10.35,28.02,31.43,25.97,56.34Z"/>
            <path class="cls-36" d="M305.72,201.36l128.11-16.01c16.33-2.05,31.71,2.93,43.26,14.01,13.14,12.6,19.71,31.55,18.02,52.01l-10.97,133.28c-2.47,30-28.87,54.48-58.86,54.56l-105.57.29h-.13c-26.24,0-48.89-21.49-51.6-49l-11.57-117.82c-3.49-35.49,18.63-67.49,49.31-71.32M440.93,190.93c-2.09,0-4.21.13-6.35.4l-128.11,16.01c-27.46,3.43-47.22,32.48-44.05,64.75l11.57,117.82c2.4,24.44,22.42,43.55,45.59,43.55h.11l105.57-.29c26.93-.07,50.65-22.07,52.87-49.02l10.97-133.28c1.53-18.64-4.37-35.83-16.19-47.16-8.71-8.35-19.89-12.78-31.99-12.78Z"/>
          </g>
          <g class="cls-3">
            <path class="cls-22" d="M406.34,353.42c-2.69.4-5.31-1.1-6.35-3.62-.59-1.42-1.02-2.86-.85-3.68.66-3.05,5.74-8.17,8.77-8.89,2.38-.56,7.91,1.09,9.26,3.13,1.35,2.03.84,7.86-.72,9.74-1.44,1.74-6.41,2.78-10.11,3.33Z"/>
            <path class="cls-22" d="M409.2,359.28c-.23-1.59.83-3.09,2.57-3.66.98-.32,1.97-.55,2.53-.43,2.08.44,5.5,3.51,5.95,5.3.35,1.4-.86,4.61-2.28,5.37-1.41.75-5.39.35-6.65-.59-1.17-.87-1.8-3.8-2.13-5.99Z"/>
            <path class="cls-22" d="M388.24,357.67s4.39-3.97,6.65-4.16,6.47,1.57,7.67,2.9c1.2,1.33,5.73,7.13,5.06,8.54s-7.98,7.01-13.43,3.51c-5.45-3.5-8.34-6.18-8-7.95s2.05-2.83,2.05-2.83Z"/>
          </g>
          <ellipse class="cls-13" cx="304.61" cy="213.41" rx="8.8" ry="4.37" transform="translate(-16.39 25.56) rotate(-4.68)"/>
        </g>
        <g>
          <g>
            <path class="cls-9" d="M311.89,393.7h-1.06c-10.37,0-16.95,11.16-15.01,23.52l5.17,32.8c1.29,8.18,8.28,14.75,15.72,15.22l.76.05c7.55.47,13.8-5.43,13.8-13.75v-33.56c0-12.72-8.8-24.26-19.38-24.26Z"/>
            <path class="cls-2" d="M332.28,418.66l-.14,10.03c0-12.73-8.67-21.49-19.25-21.49h-1.06c-7.3,0-11.8,14.7-13.67,22.3l-1.32-11.59c-1.96-12.37,4.65-23.53,14.99-23.53h1.06c10.59,0,19.39,11.55,19.39,24.28Z"/>
            <path class="cls-36" d="M318.32,468.32c-.34,0-.69-.01-1.04-.03l-.76-.05c-8.9-.56-17.03-8.36-18.51-17.76l-5.17-32.8c-1.25-7.9.67-15.73,5.11-20.93,3.35-3.91,7.92-6.07,12.87-6.07h1.06c12.14,0,22.4,12.49,22.4,27.28v33.56c0,4.94-1.85,9.4-5.21,12.56-2.93,2.75-6.71,4.24-10.75,4.24ZM310.83,396.72c-4.05,0-6.74,2.15-8.29,3.96-3.32,3.88-4.71,9.89-3.74,16.07l5.17,32.8c1.04,6.61,6.84,12.29,12.93,12.68l.76.05c2.75.16,5.33-.75,7.28-2.58,2.14-2.01,3.31-4.91,3.31-8.16v-33.56c0-11.32-7.65-21.25-16.37-21.25h-1.06Z"/>
            <path class="cls-14" d="M315,460.04c-2.61-3.4-4.24-7.21-5.8-11.04-1.48-3.86-2.57-7.82-3.4-11.83-.88-3.99-2.13-8.01-1.76-12.11.36-4.08,1.21-8.17,3.4-12.14h.76c1.05,2.02,1.7,3.99,2.19,5.96.59,1.96.96,3.91,1.24,5.86.75,3.87,0,7.82.21,11.74.18,3.91.49,7.83,1.06,11.72.52,3.89,1.34,7.8,2.76,11.51l-.66.34Z"/>
          </g>
          <g>
            <path class="cls-9" d="M418.6,392.78h-1.23c-11.96,0-21.52,17.43-21.52,34.46v36.51c0,7.57,4.87,13.42,10.9,13.98l.61.06c6.11.57,12.6-4.37,14.61-11.99l9.81-37.19c4.65-17.62-.87-35.83-13.18-35.83Z"/>
            <path class="cls-2" d="M426.66,445.93c4.65-17.65-.01-41.29-12.32-41.29h-1.21c-6.49,0-12.28,5.1-16.17,12.49,2.81-13.18,10.83-24.34,20.42-24.34h1.21c12.31,0,17.83,18.22,13.18,35.83l-5.12,17.31Z"/>
            <path class="cls-36" d="M408.36,480.85c-.42,0-.84-.02-1.27-.06l-.61-.05c-7.78-.72-13.64-8.03-13.64-16.99v-36.51c0-17.73,10.07-37.48,24.53-37.48h1.23c4.76,0,8.94,2.16,12.09,6.26,5.79,7.52,7.37,20.62,4.01,33.36l-9.81,37.19c-2.2,8.36-9.17,14.28-16.54,14.28ZM417.38,395.8c-9.51,0-18.5,15.28-18.5,31.44v36.51c0,5.83,3.51,10.55,8.16,10.98l.61.05c4.86.45,9.86-3.83,11.42-9.75l9.81-37.19c2.85-10.83,1.67-22.14-2.95-28.14-2-2.59-4.46-3.91-7.31-3.91h-1.23Z"/>
            <path class="cls-14" d="M408.13,471.88c-1.95-3.81-2.86-7.86-3.7-11.91-.75-4.06-1.11-8.16-1.2-12.25-.14-4.09-.64-8.26.46-12.23,1.09-3.95,2.67-7.81,5.55-11.32l.74.15c.67,2.16.95,4.22,1.08,6.25.22,2.04.23,4.02.16,5.98.04,3.94-1.43,7.69-1.92,11.58-.53,3.88-.93,7.79-1.08,11.72-.19,3.92-.09,7.91.63,11.82l-.71.21Z"/>
          </g>
          <g>
            <path class="cls-9" d="M363.68,393.7h-1.49c-14.73,0-21.97,26.27-17.84,48.91l7.4,40.57c1.33,7.3,6.89,12.34,12.57,12.37h.57c5.68.04,11.09-4.94,12.18-12.24l6.09-40.59c3.4-22.67-4.74-49.02-19.49-49.02Z"/>
            <path class="cls-2" d="M383.15,442.71l-2.21,18.8c-.27-19.15-6.03-54.58-18.28-54.58h-1.48c-9.32,0-15.65,10.53-17.98,23.98-.3-19.12,6.76-37.22,18.97-37.22h1.48c14.75,0,22.89,26.36,19.49,49.02Z"/>
            <path class="cls-36" d="M364.95,498.57h-.65c-7.32-.05-13.99-6.43-15.52-14.85l-7.4-40.57c-3.2-17.54.1-36.43,8.02-45.93,3.57-4.28,7.99-6.54,12.78-6.54h1.49c4.8,0,9.3,2.27,13,6.57,8.2,9.52,12.1,28.4,9.47,45.91l-6.09,40.59c-1.27,8.46-7.76,14.82-15.11,14.82ZM362.19,396.72c-2.99,0-5.73,1.47-8.15,4.37-6.75,8.09-9.57,25.32-6.72,40.98l7.4,40.57c1.03,5.62,5.16,9.87,9.62,9.9h.57s.03,0,.04,0c4.39,0,8.32-4.15,9.14-9.68l6.09-40.59c2.35-15.64-1.05-32.92-8.08-41.08-2.56-2.97-5.4-4.48-8.43-4.48h-1.49Z"/>
            <path class="cls-14" d="M362.51,484.56c-2.85-4.79-4.52-10.06-6.1-15.35-1.48-5.32-2.49-10.75-3.19-16.21-.76-5.45-1.95-10.96-1.23-16.45.72-5.47,2.02-10.9,4.92-16.07l.9.08c1.11,2.79,1.73,5.5,2.18,8.19.56,2.69.86,5.35,1.05,7.99.62,5.27-.57,10.54-.59,15.83-.06,5.28.02,10.58.42,15.87.34,5.29,1.04,10.61,2.45,15.73l-.81.4Z"/>
          </g>
        </g>
      </g>
    </g>
    <g id="face">
      <g>
        <g>
          <g>
            <ellipse class="cls-14" cx="439" cy="255.81" rx="58.82" ry="55.8"/>
            <path class="cls-23" d="M496.37,257.77c0,30.83-26.33,55.8-58.82,55.8-.87,0-1.75-.03-2.59-.06,28.29-1.36,50.76-23.53,50.76-50.67s-23.95-50.76-53.51-50.76-51.88,21.23-53.42,47.99c-.03-.75-.06-1.51-.06-2.29,0-30.8,26.33-55.8,58.82-55.8s58.82,25.01,58.82,55.8Z"/>
            <path class="cls-36" d="M439,314.63c-34.1,0-61.83-26.39-61.83-58.82s27.74-58.82,61.83-58.82,61.83,26.39,61.83,58.82-27.74,58.82-61.83,58.82ZM439,203.03c-30.77,0-55.8,23.68-55.8,52.79s25.03,52.79,55.8,52.79,55.8-23.68,55.8-52.79-25.03-52.79-55.8-52.79Z"/>
          </g>
          <path class="cls-36" d="M384.25,291.97c1.72,6.25,5.26,11.88,9.67,16.42,4.36,4.63,9.75,8.13,15.49,10.69,1.47.58,2.9,1.23,4.38,1.76l4.57,1.27c1.49.5,3.04.8,4.59,1.14,1.54.36,3.06.79,4.58,1.23,3.1.69,6.23,1.38,9.37,2.23,3.18.59,6.38,1.3,9.64,2.33v.6c-3.31.69-6.66,1.05-10.04,1.29-3.36.02-6.75-.21-10.13-.53-6.72-1.09-13.22-3.55-19.14-7.01-5.95-3.34-11.41-7.67-15.61-13.03-4.08-5.41-7.16-11.63-7.98-18.31l.6-.08Z"/>
          <path class="cls-32" d="M439,317.55s-13.53.15-18.28-1.51c-4.75-1.66-15.5-5.13-19.92-9.27s-2.79.39,0,3.59c2.79,3.2,19.79,11.11,25.54,11.79,5.75.68,14.29.23,14.83,0s5.6-2.64-2.18-4.6Z"/>
        </g>
        <g>
          <g>
            <ellipse class="cls-14" cx="301" cy="288.05" rx="31.38" ry="53.92"/>
            <path class="cls-23" d="M331.76,291.06c0,24.4-9.44,45.06-22.41,51.7,10.23-8.11,17.37-26.42,17.37-47.72,0-28.81-13.09-52.18-29.23-52.18-12.43,0-23.04,13.81-27.27,33.3,3.74-22.53,15.84-39,30.16-39,17.31,0,31.37,24.13,31.37,53.9Z"/>
            <g>
              <path class="cls-32" d="M325.78,333.33c-.56.19-9.4,9.03-11.72,10.28-1.77.95-10.26,2.84-13.37,2.89-1.03.02-2.02.55-2.45,1.49-.27.58-.3,1.2.35,1.62,1.62,1.06,12.5,1.12,18.19-4.38,5.69-5.5,9.5-11.69,9.5-11.69,0,0,.06-.41-.5-.22Z"/>
              <path class="cls-32" d="M291.88,345.52c-1.34-.56-2.41.44-1.81,1.06.59.62,1.78,2.22,3.66,2.09,0,0,1.75-1,1.5-1.91s-2-.69-3.34-1.25Z"/>
            </g>
            <path class="cls-36" d="M301,344.98c-19.29,0-34.4-25.01-34.4-56.93s15.11-56.93,34.4-56.93,34.4,25.01,34.4,56.93-15.11,56.93-34.4,56.93ZM301,237.15c-15.38,0-28.37,23.31-28.37,50.9s12.99,50.9,28.37,50.9,28.37-23.31,28.37-50.9-12.99-50.9-28.37-50.9Z"/>
          </g>
          <path class="cls-36" d="M330.5,330.76c-1.44,4.86-3.68,9.45-6.5,13.78-2.93,4.23-6.63,8.18-11.51,10.81-2.42,1.31-5.11,2.3-7.95,2.75-2.84.42-5.75.12-8.42-.71-5.29-1.83-9.69-5.16-12.64-9.54l.37-.48c4.94,1.71,9.38,3.42,13.76,4.17,4.29.63,8.59,1.17,12.84-.57,4.19-1.63,7.98-4.68,11.18-8.3,3.27-3.57,6.03-7.74,8.31-12.13l.57.21Z"/>
          <g>
            <circle class="cls-34" cx="298.33" cy="289.24" r="16.59"/>
            <circle class="cls-36" cx="296.94" cy="289.95" r="7.16"/>
            <ellipse class="cls-13" cx="291.27" cy="284.05" rx="6.05" ry="5.13" transform="translate(-86.39 435.36) rotate(-66.12)"/>
            <circle class="cls-13" cx="288.66" cy="296.32" r="2.95"/>
          </g>
        </g>
      </g>
    </g>
    <g id="pupil">
      <circle class="cls-36" cx="416.45" cy="237.57" r="7.16"/>
    </g>
    <g id="arm_x5F_L">
      <g>
        <g>
          <path class="cls-26" d="M576.5,406.03l-20.53,43.72c-5.88,12.53-17.72,16.3-27.15,7.93-1.45-1.29-2.36-3.05-2.69-4.92l-.53-3.05c-2.18-12.59-9.74-23.78-20.9-30.89l-14.37-9.16c-9.57-6.1-16.19-16.02-17.01-27.19-.7-9.59,2.3-18.96,8.86-24.91l37.02-33.56c7.2-6.53,18.87-2.12,26.24,8.94l27.19,40.83c6.21,9.32,7.98,23.45,3.85,32.26Z"/>
          <g class="cls-3">
            <path class="cls-22" d="M578.72,394.71c0,4.16-.72,8.08-2.23,11.31l-20.51,43.71c-5.88,12.55-17.74,16.32-27.15,7.93-1.09-.97-1.87-2.17-2.35-3.5v-.03c-.15-.45-.27-.94-.33-1.39l-.54-3.05c-2.17-12.58-9.74-23.77-20.9-30.89,0,0,24.37,5.52,41.32,1,8.9-13.12,16.62-32.67,16.65-61.02l9.14,13.72,1.51,2.53c2.68,4.52,4.43,10.07,5.13,15.56.09.78.15,1.57.21,2.35.03.6.06,1.18.06,1.75Z"/>
          </g>
          <path class="cls-36" d="M539.66,465.16c-4.51,0-8.96-1.8-12.83-5.24-1.91-1.7-3.21-4.06-3.65-6.66l-.53-3.04c-2.03-11.72-9.15-22.24-19.54-28.86l-14.37-9.16c-10.67-6.8-17.54-17.83-18.4-29.51-.8-10.99,2.78-20.96,9.84-27.36l37.02-33.56c3.3-2.99,7.49-4.27,12.05-3.7,6.78.84,13.78,5.77,18.73,13.2l27.19,40.83c6.89,10.34,8.64,25.48,4.07,35.21h0s-20.53,43.72-20.53,43.72c-3.49,7.44-9.19,12.47-15.62,13.79-1.14.23-2.29.35-3.43.35ZM527.16,323.96c-2.27,0-4.25.76-5.91,2.27l-37.02,33.56c-5.59,5.07-8.54,13.46-7.88,22.45.72,9.79,6.56,19.08,15.62,24.86l14.37,9.16c11.82,7.54,19.93,19.54,22.25,32.92l.53,3.05c.22,1.26.82,2.39,1.72,3.18,3.44,3.06,7.26,4.26,11.04,3.49,4.55-.94,8.7-4.74,11.37-10.44l20.53-43.72c3.62-7.71,1.99-20.86-3.63-29.3l-27.19-40.83c-3.99-5.98-9.39-9.93-14.45-10.56-.46-.06-.91-.09-1.34-.09Z"/>
        </g>
        <g>
          <path class="cls-9" d="M490.27,389.13l.25-.67c2.49-6.57-7.79-16.04-19.75-20.13l-25.49-8.72c-5.26-1.8-10.27-.5-11.83,2.68l-.16.32c-1.58,3.22.57,7.94,5.43,10.85l23.82,14.24c11.32,6.76,25.16,8.16,27.71,1.44Z"/>
          <path class="cls-14" d="M441.35,366.18s-1.28-1.04.67-.9,19.61,5.18,20.15,9.18-7.35-1.23-7.35-1.23l-13.47-7.05Z"/>
          <path class="cls-36" d="M481.26,396.54c-6.05,0-13.52-2.23-20.25-6.26l-23.82-14.24c-6.1-3.65-8.94-9.99-6.6-14.77l.16-.33c2.31-4.71,8.84-6.48,15.51-4.2l25.49,8.72c9.6,3.29,18.03,9.71,20.98,15.98,1.33,2.83,1.54,5.62.61,8.07l-.25.67c-.97,2.55-3.03,4.44-5.96,5.45-1.71.6-3.7.88-5.87.88ZM440.56,361.8c-2.19,0-3.87.73-4.39,1.81l-.16.33c-.8,1.63.73,4.8,4.28,6.93l23.82,14.24c8.46,5.05,16.99,6.26,21.05,4.86,1.82-.63,2.18-1.58,2.3-1.9l.25-.67c.34-.9.2-2.04-.43-3.37-2.23-4.74-9.57-10.13-17.47-12.84l-25.49-8.72c-1.33-.46-2.61-.66-3.75-.66Z"/>
        </g>
        <g>
          <path class="cls-9" d="M514.79,362.32l.55-.72c5.47-7.13-7.89-22.01-23.22-29.75l-27.36-13.82c-4.91-2.48-9.94-1.91-11.98.87l-.21.28c-2.03,2.77-.94,7.53,3.07,11.19l22.32,20.31c12.47,11.34,31.38,18.74,36.82,11.65Z"/>
          <path class="cls-2" d="M513.87,361.3l-.55.7c-4.27,5.6-15.79-.04-26.92-7.6,9.44,4.37,17.19,7.42,20.44,2.76l.49-.7c4.59-6.53-6.45-18.75-19.99-26.01l4.15,2.1c14.76,7.47,27.63,21.87,22.37,28.76Z"/>
          <path class="cls-36" d="M507.82,368.12c-8.88,0-21.96-6.18-31.89-15.22l-22.32-20.31c-5.09-4.63-6.55-11.02-3.47-15.2l.21-.28c3.02-4.12,9.65-4.86,15.77-1.77l27.36,13.82c11.18,5.65,23.64,16.35,25.81,25.86.93,4.08-.33,6.84-1.55,8.43l-.55.72c-1.72,2.24-4.42,3.59-7.82,3.89-.49.04-1,.07-1.53.07ZM458.55,319.48c-1.56,0-2.79.45-3.35,1.2l-.21.28c-1,1.36-.27,4.49,2.67,7.17l22.32,20.31c9.08,8.26,21.73,14.25,28.83,13.61,1.69-.15,2.89-.67,3.57-1.56l.56-.72c.23-.3.95-1.23.45-3.41-1.5-6.57-11.44-16.15-22.65-21.81l-27.36-13.82c-1.71-.86-3.42-1.24-4.84-1.24Z"/>
          <path class="cls-14" d="M462.99,326.29s-.42-2.43,1.11-1.95c1.54.48,32.36,15.87,31.72,17.8s-7.15.41-7.15.41l-25.68-16.26Z"/>
        </g>
        <g>
          <path class="cls-9" d="M529.88,335.01l.5-.44c4.88-4.3,2.28-13.2-4.95-19.21l-19.2-15.93c-4.79-3.97-11.39-4.64-15.06-1.74l-.37.29c-3.71,2.92-3.57,8.79.66,13.35l17.06,18.39c6.46,6.96,16.41,9.65,21.36,5.29Z"/>
          <path class="cls-2" d="M530.46,333.3l-.45.48c-4.4,4.83-14.36,3.2-21.84-2.99,5.04,1.51,9.83.97,12.55-1.99l.45-.48c4.52-4.98.72-14.18-7.48-19.94l-18.52-13.03c2.05.45,4.13,1.36,6.03,2.68l21.78,15.32c8.2,5.76,12.01,14.96,7.48,19.94Z"/>
          <path class="cls-36" d="M523.63,340.11c-5.71,0-12.33-2.96-17.32-8.34l-17.06-18.39c-2.88-3.11-4.37-6.97-4.09-10.59.22-2.89,1.56-5.45,3.77-7.18l.38-.3c4.88-3.84,12.98-3.07,18.85,1.8l19.19,15.93c5.27,4.37,8.46,10.15,8.54,15.46.05,3.38-1.17,6.26-3.52,8.33l-.5.44c-2.18,1.92-5.07,2.83-8.24,2.83ZM496.93,298.92c-1.58,0-2.96.41-3.89,1.14l-.38.3c-1.1.87-1.42,2.06-1.48,2.91-.15,1.95.76,4.14,2.5,6.02l17.06,18.39c5.4,5.82,13.57,8.24,17.16,5.08l.5-.44c1-.88,1.49-2.13,1.47-3.72-.05-3.46-2.55-7.74-6.36-10.91l-19.19-15.93c-2.39-1.98-5.09-2.84-7.38-2.84Z"/>
          <path class="cls-14" d="M498.53,300.06s-1.11.82-.94,1.58,9.46,10.95,12.59,12.19c3.12,1.24,3.61-2.74,3.61-2.74,0,0-13.46-10.69-15.25-11.03Z"/>
        </g>
        <g>
          <path class="cls-9" d="M539.89,446.66l.76.4c7.51,3.94,6.71,13.69-.34,20.32l-16.04,15.11c-3.5,3.29-9.5,3.89-13.75,1.69l-.43-.22c-4.25-2.2-6.06-6.84-3.75-10.76l10.6-18c4.66-7.91,15.42-12.48,22.95-8.54Z"/>
          <path class="cls-2" d="M540.32,467.39l-16.05,15.11c-1.87,1.78-4.46,2.74-7.15,2.93l14.48-13.6c7.06-6.64,7.87-16.41.36-20.33l-.78-.39c-2.99-1.57-6.48-1.81-9.92-1,5.37-4.55,12.94-6.42,18.64-3.44l.75.39c7.51,3.95,6.7,13.69-.33,20.33Z"/>
          <path class="cls-36" d="M516.1,488.49c-2.42,0-4.83-.53-6.96-1.63l-.43-.22c-2.96-1.53-5.15-4.1-6-7.04-.77-2.67-.4-5.49,1.03-7.93l10.6-18c5.7-9.69,18.3-14.21,26.95-9.68l.76.4c3.81,2,6.22,5.37,6.79,9.5.73,5.33-1.68,11.2-6.46,15.69l-16.04,15.11c-2.65,2.49-6.44,3.81-10.24,3.81ZM533.82,448.26c-5.23,0-11.25,3.31-14.29,8.47l-10.6,18c-.6,1.01-.75,2.12-.43,3.2.39,1.35,1.47,2.57,2.97,3.35l.43.22c3.21,1.66,7.83,1.11,10.29-1.21l16.04-15.11c3.31-3.11,5.08-7.13,4.62-10.48-.3-2.2-1.51-3.87-3.61-4.97l-.76-.4c-1.39-.73-2.99-1.07-4.67-1.07Z"/>
          <path class="cls-14" d="M518.77,470.68s-8.67,1.7-7.6,4.27,6.16,7.1,7.98,5.15,6.41-5.84,4.96-7.29c-1.45-1.45-5.34-2.14-5.34-2.14Z"/>
        </g>
      </g>
    </g>
  </g>
</svg>